<svg xmlns="http://www.w3.org/2000/svg" viewBox="0 0 64 64" role="img" aria-label="傘">
  <defs>
    <filter id="softInk" x="-20%" y="-20%" width="140%" height="140%">
      <feGaussianBlur stdDeviation="0.6"/>
    </filter>
    <filter id="washBlur" x="-30%" y="-30%" width="160%" height="160%">
      <feGaussianBlur stdDeviation="2.2"/>
    </filter>
  </defs>
  <rect width="64" height="64" fill="#f3ebdc"/>
  
  <path d="M10 30 Q32 8 54 30 Q43 24 32 25 Q21 24 10 30Z" fill="#1a1a1a" fill-opacity="0.85"/>
  <path d="M10 30 Q32 8 54 30" stroke="#1a1a1a" stroke-linecap="round" fill="none" stroke-width="2"/>
  <path d="M32 12 L32 25 M20 18 L27 26 M44 18 L37 26 M14 26 L24 28 M50 26 L40 28" stroke="#1a1a1a" stroke-linecap="round" fill="none" stroke-width="1.2" opacity="0.75"/>
  <path d="M32 25 L32 50 Q32 55 36 54" stroke="#1a1a1a" stroke-linecap="round" fill="none" stroke-width="2.4"/>
  <path d="M30 10 L34 10" stroke="#a33a32" stroke-width="2.4" stroke-linecap="round"/>

</svg>
