<svg xmlns="http://www.w3.org/2000/svg" viewBox="0 0 900 260" role="img" aria-label="橋上相遇">
  <defs>
    <linearGradient id="mist" x1="0" y1="0" x2="0" y2="1">
      <stop stop-color="#1a1a1a" stop-opacity="0"/>
      <stop offset="1" stop-color="#1a1a1a" stop-opacity="0.16"/>
    </linearGradient>
    <filter id="washBlur" x="-30%" y="-30%" width="160%" height="160%">
      <feGaussianBlur stdDeviation="3"/>
    </filter>
    <filter id="softInk" x="-20%" y="-20%" width="140%" height="140%">
      <feGaussianBlur stdDeviation="0.7"/>
    </filter>
  </defs>
  <rect width="900" height="260" fill="#f3ebdc"/>
  
  <path d="M0 210 Q90 150 170 190 Q240 140 330 185 Q420 135 520 190 Q610 145 700 190 Q800 150 900 200 L900 260 L0 260Z" fill="#1a1a1a" fill-opacity="0.07" filter="url(#washBlur)"/>
  <path d="M0 228 Q110 185 210 216 Q330 175 450 218 Q570 180 690 220 Q790 190 900 224 L900 260 L0 260Z" fill="#1a1a1a" fill-opacity="0.12" filter="url(#washBlur)"/>
  <path d="M0 246 Q900 236 900 246 L900 260 L0 260Z" fill="#1a1a1a" fill-opacity="0.1"/>

  <g>
    <path d="M320 214 Q450 138 580 214" stroke="#1a1a1a" stroke-linecap="round" fill="none" stroke-width="5"/>
    <path d="M328 214 L328 226 M572 214 L572 226 M316 226 L584 226" stroke="#1a1a1a" stroke-linecap="round" fill="none" stroke-width="3"/>
    <path d="M370 190 L370 212 M450 172 L450 210 M530 190 L530 212" stroke="#1a1a1a" stroke-linecap="round" fill="none" stroke-width="2.2" opacity="0.8"/>
    <path d="M340 240 Q450 260 560 240" stroke="#1a1a1a" stroke-linecap="round" fill="none" stroke-width="1.6" opacity="0.3" filter="url(#softInk)"/>
  </g>
  <g>
    <path d="M450 158 Q442 168 444 180 Q450 186 456 180 Q458 168 450 158Z" fill="#1a1a1a" fill-opacity="0.85"/>
    <circle cx="450" cy="153" r="5" fill="#1a1a1a" fill-opacity="0.85"/>
  </g>
  <g>
    <path d="M690 120 Q682 160 686 210" stroke="#1a1a1a" stroke-linecap="round" fill="none" stroke-width="3"/>
    <path d="M690 128 Q668 138 658 160 M690 138 Q712 144 722 166 M688 150 Q674 168 672 190 M692 152 Q706 172 708 194" stroke="#1a1a1a" stroke-linecap="round" fill="none" stroke-width="1.8" opacity="0.8"/>
  </g>
  <path d="M140 222 Q260 210 340 222 M600 236 Q720 226 820 236" stroke="#1a1a1a" stroke-linecap="round" fill="none" stroke-width="1.2" opacity="0.25"/>
  <circle cx="220" cy="100" r="1.8" fill="#1a1a1a" opacity="0.4"/>
  <circle cx="244" cy="110" r="1.3" fill="#1a1a1a" opacity="0.3"/>
  <circle cx="450" cy="146" r="2" fill="#a33a32" opacity="0.7"/>
</svg>
