<svg xmlns="http://www.w3.org/2000/svg" viewBox="0 0 160 160" role="img" aria-label="松紋甲">
  <defs>
    <filter id="softInk" x="-20%" y="-20%" width="140%" height="140%">
      <feGaussianBlur stdDeviation="0.6"/>
    </filter>
    <filter id="washBlur" x="-30%" y="-30%" width="160%" height="160%">
      <feGaussianBlur stdDeviation="2.4"/>
    </filter>
    <linearGradient id="wash" x1="0" y1="0" x2="0" y2="1">
      <stop stop-color="#1a1a1a" stop-opacity="0.22"/>
      <stop offset="1" stop-color="#1a1a1a" stop-opacity="0"/>
    </linearGradient>
  </defs>
  <rect width="160" height="160" rx="18" fill="#f3ebdc"/>
  <rect x="5" y="5" width="150" height="150" rx="14" fill="none" stroke="#1a1a1a" stroke-opacity="0.14" stroke-width="1.5"/>
  
  <path d="M80 32 Q58 38 52 60 Q48 88 54 120 Q66 128 80 128 Q94 128 106 120 Q112 88 108 60 Q102 38 80 32Z" fill="#1a1a1a" fill-opacity="0.12"/>
  <path d="M80 32 Q58 38 52 60 Q48 88 54 120 Q66 128 80 128 Q94 128 106 120 Q112 88 108 60 Q102 38 80 32Z" stroke="#1a1a1a" stroke-linecap="round" fill="none" stroke-width="3"/>
  <g stroke="#1a1a1a" stroke-linecap="round" fill="none" stroke-width="1.6" opacity="0.75">
    <path d="M62 58 Q71 52 80 58 Q89 52 98 58"/>
    <path d="M58 72 Q67 66 76 72 M84 72 Q93 66 102 72"/>
    <path d="M62 86 Q71 80 80 86 Q89 80 98 86"/>
    <path d="M58 100 Q67 94 76 100 M84 100 Q93 94 102 100"/>
    <path d="M64 113 Q72 108 80 113 Q88 108 96 113"/>
  </g>
  <path d="M80 32 Q74 42 76 52 L80 62 L84 52 Q86 42 80 32Z" fill="#f3ebdc" stroke="#1a1a1a" stroke-width="2"/>
  <circle cx="80" cy="47" r="2.4" fill="#a33a32"/>

</svg>
