<svg xmlns="http://www.w3.org/2000/svg" viewBox="0 0 960 360" fill="none" role="img" aria-label="雨店"><defs><filter id="ei" x="-20%" y="-20%" width="140%" height="140%"><feGaussianBlur stdDeviation="1.8"/></filter><linearGradient id="eiW" x1="0" y1="0" x2="0" y2="1"><stop offset="0%" stop-color="#1a1a1a" stop-opacity="0"/><stop offset="100%" stop-color="#1a1a1a" stop-opacity="0.12"/></linearGradient></defs><rect width="960" height="360" fill="#f3ebdc"/><path d="M-10,360 L-10,318 Q160,284 320,310 Q500,336 660,300 Q820,272 970,306 L970,360 Z" fill="url(#eiW)" filter="url(#ei)"/><path d="M330,300 L330,220 L430,196 L530,220 L530,300 Z" fill="#1a1a1a" fill-opacity="0.5"/><path d="M310,224 Q430,182 550,224" stroke="#1a1a1a" stroke-opacity="0.75" stroke-width="7" stroke-linecap="round"/><path d="M352,248 h156 M352,272 h156" stroke="#f3ebdc" stroke-opacity="0.5" stroke-width="3"/><rect x="410" y="236" width="40" height="30" fill="#f3ebdc" fill-opacity="0.35"/><path d="M560,300 L560,200" stroke="#1a1a1a" stroke-opacity="0.7" stroke-width="4" stroke-linecap="round"/><path d="M560,204 q40,4 56,18 q-16,10 -56,6 Z" fill="#a33a32" fill-opacity="0.6"/><path d="M690,302 q6,-40 -6,-72 m4,30 q16,-10 22,-28 m-26,12 q-14,-6 -20,-22" stroke="#1a1a1a" stroke-opacity="0.5" stroke-width="3.4" stroke-linecap="round"/><path d="M165,176 l-5,21" stroke="#1a1a1a" stroke-opacity="0.14" stroke-width="1.3" stroke-linecap="round"/><path d="M213,200 l-5,23" stroke="#1a1a1a" stroke-opacity="0.14" stroke-width="1.3" stroke-linecap="round"/><path d="M485,67 l-5,12" stroke="#1a1a1a" stroke-opacity="0.12" stroke-width="1.3" stroke-linecap="round"/><path d="M560,27 l-5,23" stroke="#1a1a1a" stroke-opacity="0.11" stroke-width="1.3" stroke-linecap="round"/><path d="M229,20 l-5,26" stroke="#1a1a1a" stroke-opacity="0.17" stroke-width="1.3" stroke-linecap="round"/><path d="M833,158 l-5,12" stroke="#1a1a1a" stroke-opacity="0.12" stroke-width="1.3" stroke-linecap="round"/><path d="M478,38 l-5,25" stroke="#1a1a1a" stroke-opacity="0.12" stroke-width="1.3" stroke-linecap="round"/><path d="M156,206 l-5,14" stroke="#1a1a1a" stroke-opacity="0.19" stroke-width="1.3" stroke-linecap="round"/><path d="M436,142 l-5,17" stroke="#1a1a1a" stroke-opacity="0.14" stroke-width="1.3" stroke-linecap="round"/><path d="M186,19 l-5,24" stroke="#1a1a1a" stroke-opacity="0.11" stroke-width="1.3" stroke-linecap="round"/><path d="M743,60 l-5,26" stroke="#1a1a1a" stroke-opacity="0.19" stroke-width="1.3" stroke-linecap="round"/><path d="M720,193 l-5,20" stroke="#1a1a1a" stroke-opacity="0.17" stroke-width="1.3" stroke-linecap="round"/><path d="M125,124 l-5,24" stroke="#1a1a1a" stroke-opacity="0.10" stroke-width="1.3" stroke-linecap="round"/><path d="M878,223 l-5,18" stroke="#1a1a1a" stroke-opacity="0.12" stroke-width="1.3" stroke-linecap="round"/><path d="M434,103 l-5,26" stroke="#1a1a1a" stroke-opacity="0.13" stroke-width="1.3" stroke-linecap="round"/><path d="M35,32 l-5,22" stroke="#1a1a1a" stroke-opacity="0.20" stroke-width="1.3" stroke-linecap="round"/><path d="M476,128 l-5,20" stroke="#1a1a1a" stroke-opacity="0.17" stroke-width="1.3" stroke-linecap="round"/><path d="M219,156 l-5,20" stroke="#1a1a1a" stroke-opacity="0.15" stroke-width="1.3" stroke-linecap="round"/><path d="M180,51 l-5,17" stroke="#1a1a1a" stroke-opacity="0.19" stroke-width="1.3" stroke-linecap="round"/><path d="M336,153 l-5,16" stroke="#1a1a1a" stroke-opacity="0.09" stroke-width="1.3" stroke-linecap="round"/><path d="M72,205 l-5,23" stroke="#1a1a1a" stroke-opacity="0.12" stroke-width="1.3" stroke-linecap="round"/><path d="M652,172 l-5,25" stroke="#1a1a1a" stroke-opacity="0.19" stroke-width="1.3" stroke-linecap="round"/><path d="M393,247 l-5,25" stroke="#1a1a1a" stroke-opacity="0.15" stroke-width="1.3" stroke-linecap="round"/><path d="M840,128 l-5,17" stroke="#1a1a1a" stroke-opacity="0.11" stroke-width="1.3" stroke-linecap="round"/><path d="M834,49 l-5,13" stroke="#1a1a1a" stroke-opacity="0.18" stroke-width="1.3" stroke-linecap="round"/><path d="M737,126 l-5,24" stroke="#1a1a1a" stroke-opacity="0.09" stroke-width="1.3" stroke-linecap="round"/><path d="M252,80 l-5,18" stroke="#1a1a1a" stroke-opacity="0.10" stroke-width="1.3" stroke-linecap="round"/><path d="M75,91 l-5,25" stroke="#1a1a1a" stroke-opacity="0.20" stroke-width="1.3" stroke-linecap="round"/><path d="M711,125 l-5,16" stroke="#1a1a1a" stroke-opacity="0.20" stroke-width="1.3" stroke-linecap="round"/><path d="M504,185 l-5,12" stroke="#1a1a1a" stroke-opacity="0.11" stroke-width="1.3" stroke-linecap="round"/><path d="M798,201 l-5,24" stroke="#1a1a1a" stroke-opacity="0.15" stroke-width="1.3" stroke-linecap="round"/><path d="M411,149 l-5,24" stroke="#1a1a1a" stroke-opacity="0.12" stroke-width="1.3" stroke-linecap="round"/><path d="M512,76 l-5,23" stroke="#1a1a1a" stroke-opacity="0.08" stroke-width="1.3" stroke-linecap="round"/><path d="M654,239 l-5,12" stroke="#1a1a1a" stroke-opacity="0.15" stroke-width="1.3" stroke-linecap="round"/></svg>
