<svg xmlns="http://www.w3.org/2000/svg" viewBox="0 0 1200 400" fill="none" role="img" aria-label="秋山"><defs><filter id="aA" x="-20%" y="-20%" width="140%" height="140%"><feGaussianBlur stdDeviation="1.8"/></filter><linearGradient id="aW" x1="0" y1="0" x2="0" y2="1"><stop offset="0%" stop-color="#1a1a1a" stop-opacity="0"/><stop offset="100%" stop-color="#1a1a1a" stop-opacity="0.15"/></linearGradient></defs><rect width="1200" height="400" fill="#f3ebdc"/><path d="M-20,400 L-20,330 Q130,290 270,320 Q410,346 560,306 Q720,270 880,308 Q1040,340 1220,304 L1220,400 Z" fill="url(#aW)" filter="url(#aA)"/><path d="M80,336 Q180,314 270,330 M580,310 Q680,286 780,304 M960,312 Q1060,294 1150,308" stroke="#1a1a1a" stroke-opacity="0.26" stroke-width="2.2" stroke-linecap="round"/><path d="M210,366 q4,-26 -2,-44 m-8,14 q8,-8 12,-20 m6,22 q-10,-6 -16,-16" stroke="#1a1a1a" stroke-opacity="0.5" stroke-width="2" stroke-linecap="round"/><path d="M988,358 q-4,-22 2,-38 m-7,12 q7,-7 10,-17" stroke="#1a1a1a" stroke-opacity="0.45" stroke-width="2" stroke-linecap="round"/><circle cx="549" cy="338" r="4.0" fill="#8a4a2f" fill-opacity="0.47"/><circle cx="608" cy="340" r="2.6" fill="#8a4a2f" fill-opacity="0.48"/><circle cx="740" cy="354" r="2.4" fill="#8a4a2f" fill-opacity="0.43"/><circle cx="158" cy="355" r="3.6" fill="#8a4a2f" fill-opacity="0.36"/><circle cx="1121" cy="366" r="3.5" fill="#8a4a2f" fill-opacity="0.50"/><circle cx="230" cy="301" r="3.3" fill="#8a4a2f" fill-opacity="0.36"/><circle cx="265" cy="316" r="2.3" fill="#8a4a2f" fill-opacity="0.47"/><circle cx="536" cy="357" r="3.2" fill="#8a4a2f" fill-opacity="0.51"/><circle cx="600" cy="345" r="3.1" fill="#8a4a2f" fill-opacity="0.42"/><circle cx="1137" cy="368" r="3.9" fill="#8a4a2f" fill-opacity="0.53"/><circle cx="400" cy="316" r="2.8" fill="#8a4a2f" fill-opacity="0.37"/><circle cx="888" cy="327" r="3.9" fill="#8a4a2f" fill-opacity="0.45"/><circle cx="1095" cy="358" r="2.2" fill="#8a4a2f" fill-opacity="0.40"/><circle cx="1043" cy="332" r="4.2" fill="#8a4a2f" fill-opacity="0.45"/><circle cx="139" cy="343" r="3.8" fill="#8a4a2f" fill-opacity="0.42"/><circle cx="154" cy="323" r="4.1" fill="#8a4a2f" fill-opacity="0.54"/></svg>
