<svg xmlns="http://www.w3.org/2000/svg" viewBox="0 0 112 112" role="img" aria-label="緣">
  <path d="M10.0 10.8L21.5 10.6L33.0 8.5L44.5 8.5L56.0 10.6L67.5 11.4L79.0 8.8L90.5 8.9L102.0 10.9L101.9 21.5L101.7 33.0L101.4 44.5L100.3 56.0L101.8 67.5L101.2 79.0L101.6 90.5L102.2 102.0L90.5 102.7L79.0 102.5L67.5 103.0L56.0 100.1L44.5 102.6L33.0 102.2L21.5 103.4L10.0 103.8L8.1 90.5L11.3 79.0L9.0 67.5L10.5 56.0L11.1 44.5L11.4 33.0L11.8 21.5Z" fill="#a33a32"/>
  <path d="M16.0 15.6L29.3 15.8L42.7 16.2L56.0 16.0L69.3 16.2L82.7 16.2L96.0 16.9L95.0 29.3L96.6 42.7L96.8 56.0L96.5 69.3L95.8 82.7L97.1 96.0L82.7 94.9L69.3 96.7L56.0 96.2L42.7 94.9L29.3 95.6L16.0 95.7L15.2 82.7L16.3 69.3L15.9 56.0L16.5 42.7L15.7 29.3Z" fill="#a33a32" fill-opacity="0.9"/>
  <path d="M41.7 65.9C43.0 69.5 44.2 74.1 44.3 77.0L49.8 75.3C49.5 72.3 48.2 67.9 46.7 64.3L41.7 65.9ZM28.3 64.6C27.8 70.0 26.9 75.8 25.0 79.6C26.5 80.1 29.2 81.4 30.4 82.1C32.2 78.0 33.6 71.8 34.2 65.6L28.3 64.6ZM81.8 54.5C80.4 56.1 78.4 58.1 76.4 59.9C75.7 57.5 75.1 55.1 74.5 52.7L85.3 52.7L85.3 46.6L78.1 46.6C79.2 41.5 80.3 35.9 80.9 31.0L75.9 30.3L74.8 30.6L62.7 30.6L63.4 27.5L56.6 26.8C55.5 32.6 53.7 39.9 52.3 44.6L59.1 45.4L59.5 44.2L71.7 44.2L71.2 46.6L48.4 46.6L48.4 52.7L60.6 52.7C57.3 54.7 53.5 56.3 49.8 57.5C48.8 54.3 47.2 50.6 45.6 47.6L40.6 49.6C41.3 51.0 42.0 52.5 42.6 54.1L37.2 54.4C41.1 49.2 45.2 42.8 48.6 37.3L42.6 34.6C41.1 37.8 39.2 41.4 37.0 45.0C36.5 44.2 35.8 43.3 35.0 42.4C37.2 38.8 39.9 33.8 42.2 29.3L35.6 27.0C34.6 30.3 32.8 34.6 31.0 38.2L29.5 36.7L25.8 41.7C28.5 44.5 31.5 48.1 33.3 51.0L30.6 54.8L25.6 55.1L26.4 61.7L34.9 61.1L34.9 87.1L41.3 87.1L41.3 60.6L44.6 60.3C45.0 61.6 45.2 62.9 45.4 64.0L50.8 61.6C50.6 60.6 50.4 59.3 50.0 58.1C51.1 59.4 52.7 61.6 53.4 62.7C55.4 61.9 57.6 60.9 59.7 59.7L61.1 61.1C57.7 63.7 52.6 66.3 48.6 67.6C50.0 68.8 51.7 71.1 52.5 72.6C56.2 70.9 60.7 68.2 64.2 65.4L65.1 67.3C60.9 72.0 53.0 77.0 46.3 79.2C47.7 80.5 49.5 82.7 50.4 84.3C55.7 82.0 62.0 77.9 66.6 73.6C66.7 76.5 66.1 78.8 65.1 79.8C64.4 80.9 63.4 81.1 62.1 81.1C60.8 81.1 59.8 81.0 58.2 80.7C59.4 82.7 59.7 85.3 59.8 87.1C61.1 87.1 62.3 87.2 63.6 87.2C66.1 87.1 67.8 86.6 69.6 85.0C74.5 81.1 75.9 66.3 64.7 56.6C66.1 55.6 67.4 54.5 68.6 53.5C71.0 65.7 75.0 76.6 82.1 82.7C83.1 80.8 85.4 78.2 87.0 76.9C83.5 74.3 80.8 70.3 78.6 65.5C81.0 64.0 83.7 61.8 86.5 59.9L81.8 54.5ZM61.6 35.7L73.3 35.7L72.7 39.0L60.9 39.0L61.6 35.7Z" fill="#f3ebdc" fill-rule="evenodd"/>
  <circle cx="33.8" cy="50.0" r="0.6" fill="#f3ebdc" fill-opacity="0.85"/>
  <circle cx="63.8" cy="79.7" r="1.5" fill="#f3ebdc" fill-opacity="0.85"/>
  <circle cx="41.4" cy="23.2" r="0.9" fill="#f3ebdc" fill-opacity="0.85"/>
  <circle cx="63.7" cy="35.0" r="1.2" fill="#f3ebdc" fill-opacity="0.85"/>
  <circle cx="89.8" cy="46.8" r="1.0" fill="#f3ebdc" fill-opacity="0.85"/>
  <circle cx="78.5" cy="65.3" r="1.3" fill="#f3ebdc" fill-opacity="0.85"/>
  <circle cx="56.6" cy="88.2" r="0.7" fill="#f3ebdc" fill-opacity="0.85"/>
  <circle cx="64.2" cy="21.9" r="1.6" fill="#f3ebdc" fill-opacity="0.85"/>
  <circle cx="50.5" cy="24.2" r="1.5" fill="#f3ebdc" fill-opacity="0.85"/>
  <circle cx="92.0" cy="33.7" r="0.9" fill="#f3ebdc" fill-opacity="0.85"/>
  <circle cx="29.4" cy="46.8" r="1.0" fill="#f3ebdc" fill-opacity="0.85"/>
  <circle cx="38.7" cy="41.5" r="0.8" fill="#f3ebdc" fill-opacity="0.85"/>
  <circle cx="23.5" cy="26.7" r="1.6" fill="#f3ebdc" fill-opacity="0.85"/>
  <circle cx="28.7" cy="83.5" r="1.5" fill="#f3ebdc" fill-opacity="0.85"/>
</svg>
